<?xml version="1.0" encoding="utf-8"?>
<!-- Generator: Adobe Illustrator 27.4.0, SVG Export Plug-In . SVG Version: 6.00 Build 0)  -->
<svg version="1.1" id="레이어_1" xmlns="http://www.w3.org/2000/svg" xmlns:xlink="http://www.w3.org/1999/xlink" x="0px"
	 y="0px" viewBox="0 0 512 512" style="enable-background:new 0 0 512 512;" xml:space="preserve">
<style type="text/css">
	.st0{fill:#666666;}
	.st1{fill:#4D4D4D;}
	.st2{fill:#FFFFFF;stroke:#FFFFFF;stroke-miterlimit:10;}
	.st3{fill:#BDCCD4;}
</style>
<g>
	<g>
		<path class="st0" d="M256,439.18c-62.78,0-121.8-23.52-166.19-66.22c-44.26-42.58-68.69-99.15-68.83-159.34h470.04
			c-0.13,60.2-24.56,116.77-68.83,159.34C377.8,415.66,318.78,439.18,256,439.18z"/>
		<path class="st0" d="M490.52,214.12c-0.13,30.1-6.33,59.29-18.42,86.79c-11.81,26.86-28.72,50.98-50.25,71.7
			c-21.54,20.72-46.62,36.98-74.55,48.35c-28.92,11.76-59.63,17.73-91.3,17.73s-62.38-5.97-91.3-17.73
			c-27.93-11.36-53.01-27.63-74.55-48.35c-21.54-20.72-38.44-44.84-50.25-71.7c-12.09-27.5-18.29-56.69-18.42-86.79H490.52
			 M491.52,213.12H20.48c0,125.13,105.45,226.56,235.52,226.56S491.52,338.25,491.52,213.12L491.52,213.12z"/>
	</g>
	<g>
		<circle class="st1" cx="254.72" cy="321.92" r="57.1"/>
		<path class="st1" d="M254.72,265.32c31.21,0,56.6,25.39,56.6,56.6s-25.39,56.6-56.6,56.6s-56.6-25.39-56.6-56.6
			S223.51,265.32,254.72,265.32 M254.72,264.32c-31.81,0-57.6,25.79-57.6,57.6s25.79,57.6,57.6,57.6s57.6-25.79,57.6-57.6
			S286.53,264.32,254.72,264.32L254.72,264.32z"/>
	</g>
	<g>
		<path class="st0" d="M254.72,366.22c-24.43,0-44.3-19.87-44.3-44.3s19.87-44.3,44.3-44.3c24.43,0,44.3,19.87,44.3,44.3
			S279.15,366.22,254.72,366.22z"/>
		<path class="st0" d="M254.72,278.12c24.15,0,43.8,19.65,43.8,43.8c0,24.15-19.65,43.8-43.8,43.8s-43.8-19.65-43.8-43.8
			C210.92,297.77,230.57,278.12,254.72,278.12 M254.72,277.12c-24.74,0-44.8,20.06-44.8,44.8c0,24.74,20.06,44.8,44.8,44.8
			s44.8-20.06,44.8-44.8C299.52,297.18,279.46,277.12,254.72,277.12L254.72,277.12z"/>
	</g>
	<g>
		<path class="st1" d="M254.72,353.42c-17.37,0-31.5-14.13-31.5-31.5s14.13-31.5,31.5-31.5c17.37,0,31.5,14.13,31.5,31.5
			S272.09,353.42,254.72,353.42z"/>
		<path class="st1" d="M254.72,290.92c17.09,0,31,13.91,31,31s-13.91,31-31,31s-31-13.91-31-31S237.63,290.92,254.72,290.92
			 M254.72,289.92c-17.67,0-32,14.33-32,32c0,17.67,14.33,32,32,32s32-14.33,32-32C286.72,304.25,272.39,289.92,254.72,289.92
			L254.72,289.92z"/>
	</g>
	<circle class="st2" cx="224" cy="347.52" r="5.12"/>
	<circle class="st2" cx="280.32" cy="296.32" r="10.24"/>
	<g>
		<path class="st3" d="M17.97,199.82c-2.72,0-5.29-0.6-7.65-1.77L0.5,179.79v-89.5c0-9.63,7.84-17.47,17.47-17.47h476.06
			c9.63,0,17.47,7.84,17.47,17.47v89.42l-9.85,18.34c-2.35,1.17-4.92,1.77-7.62,1.77H17.97z"/>
		<path class="st3" d="M494.03,73.32c9.36,0,16.97,7.61,16.97,16.97v89.3l-9.71,18.08c-2.24,1.09-4.68,1.65-7.26,1.65H17.97
			c-2.59,0-5.04-0.55-7.28-1.65L1,179.66V90.29c0-9.36,7.61-16.97,16.97-16.97H494.03 M494.03,72.32H17.97
			C8.04,72.32,0,80.36,0,90.29v89.63l9.96,18.51c2.41,1.23,5.12,1.89,8.01,1.89h476.06c2.87,0,5.58-0.67,7.99-1.89l9.98-18.59V90.29
			C512,80.36,503.96,72.32,494.03,72.32L494.03,72.32z"/>
	</g>
	<g>
		<path class="st3" d="M20.91,217.74L10.4,198.19l-9.6-17.83c0.2-0.01,0.41-0.01,0.6-0.01h509.76l-20.1,37.4H20.91z"/>
		<path class="st3" d="M510.33,180.84l-9.19,17.11l-10.37,19.29H21.21l-10.37-19.29l-9.21-17.11H510.33 M512,179.84H1.41
			c-0.46,0-0.95,0.03-1.41,0.08l9.96,18.51l10.65,19.81h470.76l10.65-19.81L512,179.84L512,179.84z"/>
	</g>
</g>
</svg>
