<?xml version="1.0" encoding="utf-8"?>
<!-- Generator: Adobe Illustrator 27.4.0, SVG Export Plug-In . SVG Version: 6.00 Build 0)  -->
<svg version="1.1" id="레이어_1" xmlns="http://www.w3.org/2000/svg" xmlns:xlink="http://www.w3.org/1999/xlink" x="0px"
	 y="0px" viewBox="0 0 512 512" style="enable-background:new 0 0 512 512;" xml:space="preserve">
<style type="text/css">
	.st0{fill:#FFFFFF;}
</style>
<g>
	<g>
		<path class="st0" d="M308.33,301.18c-3.59,0-6.5-2.92-6.5-6.51v-10.25h-175.5c-3.58,0-6.5-2.92-6.5-6.5v-39
			c0-3.58,2.92-6.5,6.5-6.5h175.5v-15.1c0-3.59,2.92-6.51,6.5-6.51c1,0,1.98,0.23,2.9,0.7l77.35,38.68c2.25,1.12,3.59,3.29,3.59,5.8
			c0,2.52-1.34,4.7-3.59,5.82l-77.35,38.67C310.31,300.95,309.33,301.18,308.33,301.18z"/>
		<path class="st0" d="M308.33,211.32L308.33,211.32c0.93,0,1.83,0.22,2.68,0.64l77.35,38.68c2.07,1.03,3.31,3.04,3.32,5.36
			c0,2.33-1.24,4.33-3.32,5.37l-77.35,38.67c-0.85,0.43-1.75,0.64-2.68,0.64c-3.31,0-6-2.7-6-6.01v-9.75v-1h-1h-175
			c-3.31,0-6-2.69-6-6v-39c0-3.31,2.69-6,6-6h175h1v-1v-14.6C302.33,214.01,305.02,211.32,308.33,211.32 M308.33,210.32
			c-3.67,0-7,2.95-7,7.01v14.6h-175c-3.87,0-7,3.13-7,7v39c0,3.87,3.13,7,7,7h175v9.75c0,4.05,3.33,7.01,7,7.01
			c1.04,0,2.1-0.24,3.13-0.75l77.35-38.67c5.16-2.58,5.16-9.95,0-12.52l-77.35-38.68C310.43,210.55,309.37,210.32,308.33,210.32
			L308.33,210.32z"/>
	</g>
</g>
</svg>
