<?xml version="1.0" encoding="utf-8"?>
<!-- Generator: Adobe Illustrator 27.4.0, SVG Export Plug-In . SVG Version: 6.00 Build 0)  -->
<svg version="1.1" id="레이어_1" xmlns="http://www.w3.org/2000/svg" xmlns:xlink="http://www.w3.org/1999/xlink" x="0px"
	 y="0px" viewBox="0 0 512 512" style="enable-background:new 0 0 512 512;" xml:space="preserve">
<style type="text/css">
	.st0{fill:#FFFFFF;}
</style>
<g>
	<g>
		<path class="st0" d="M203.67,301.18c-1,0-1.98-0.23-2.9-0.7l-77.35-38.68c-2.25-1.12-3.59-3.29-3.59-5.8
			c0-2.52,1.34-4.7,3.59-5.82l77.35-38.67c0.92-0.46,1.9-0.7,2.9-0.7c3.59,0,6.5,2.92,6.5,6.51v10.25h175.5c3.58,0,6.5,2.92,6.5,6.5
			v39c0,3.58-2.92,6.5-6.5,6.5h-175.5v15.1C210.17,298.26,207.26,301.18,203.67,301.18z"/>
		<path class="st0" d="M203.67,211.32L203.67,211.32c3.31,0,6,2.7,6,6.01v9.75v1h1h175c3.31,0,6,2.69,6,6v39c0,3.31-2.69,6-6,6h-175
			h-1v1v14.6c0,3.31-2.69,6.01-6,6.01c-0.93,0-1.83-0.22-2.68-0.64l-77.35-38.68c-2.07-1.03-3.31-3.04-3.32-5.36
			c0-2.33,1.24-4.33,3.32-5.37l77.35-38.67C201.84,211.53,202.75,211.32,203.67,211.32 M203.67,210.32c-1.04,0-2.1,0.24-3.13,0.75
			l-77.35,38.67c-5.16,2.58-5.16,9.95,0,12.52l77.35,38.68c1.02,0.51,2.09,0.75,3.13,0.75c3.67,0,7-2.95,7-7.01v-14.6h175
			c3.87,0,7-3.13,7-7v-39c0-3.87-3.13-7-7-7h-175v-9.75C210.68,213.27,207.34,210.32,203.67,210.32L203.67,210.32z"/>
	</g>
</g>
</svg>
