<?xml version="1.0" encoding="utf-8"?>
<!-- Generator: Adobe Illustrator 27.4.0, SVG Export Plug-In . SVG Version: 6.00 Build 0)  -->
<svg version="1.1" id="레이어_1" xmlns="http://www.w3.org/2000/svg" xmlns:xlink="http://www.w3.org/1999/xlink" x="0px"
	 y="0px" viewBox="0 0 512 512" style="enable-background:new 0 0 512 512;" xml:space="preserve">
<style type="text/css">
	.st0{fill:#FFFFFF;}
</style>
<g>
	<g>
		<path class="st0" d="M238.92,392.17c-3.58,0-6.5-2.92-6.5-6.5v-175.5h-15.1c-2.27,0-4.34-1.15-5.53-3.09
			c-1.19-1.93-1.3-4.29-0.28-6.32l38.68-77.35c1.12-2.25,3.29-3.59,5.81-3.59s4.69,1.34,5.82,3.59l38.67,77.35
			c1.02,2.03,0.91,4.39-0.28,6.32c-1.19,1.93-3.26,3.09-5.53,3.09h-10.25v175.5c0,3.58-2.92,6.5-6.5,6.5H238.92z"/>
		<path class="st0" d="M256,120.32c2.32,0,4.33,1.24,5.37,3.32l38.67,77.35c0.94,1.87,0.84,4.05-0.26,5.83
			c-1.1,1.78-3.01,2.85-5.1,2.85h-9.75h-1v1l0,175c0,3.31-2.69,6-6,6l-39,0c-3.31,0-6-2.69-6-6l0-175v-1h-1h-14.6
			c-2.09,0-4-1.07-5.1-2.85c-1.1-1.78-1.2-3.96-0.26-5.83l38.68-77.35C251.67,121.56,253.68,120.32,256,120.32 M256,119.32
			c-2.49,0-4.97,1.29-6.26,3.87l-38.68,77.35c-2.33,4.65,1.06,10.13,6.26,10.13h14.6l0,175c0,3.87,3.13,7,7,7l39,0
			c3.87,0,7-3.13,7-7l0-175h9.75c5.2,0,8.59-5.48,6.26-10.13l-38.67-77.35C260.98,120.61,258.49,119.32,256,119.32L256,119.32z"/>
	</g>
</g>
</svg>
