<?xml version="1.0" encoding="utf-8"?>
<!-- Generator: Adobe Illustrator 27.4.0, SVG Export Plug-In . SVG Version: 6.00 Build 0)  -->
<svg version="1.1" id="레이어_1" xmlns="http://www.w3.org/2000/svg" xmlns:xlink="http://www.w3.org/1999/xlink" x="0px"
	 y="0px" viewBox="0 0 512 512" style="enable-background:new 0 0 512 512;" xml:space="preserve">
<style type="text/css">
	.st0{fill:#FFFFFF;}
</style>
<g>
	<g>
		<path class="st0" d="M256,392.17c-2.52,0-4.69-1.34-5.82-3.59l-38.67-77.35c-1.02-2.03-0.91-4.39,0.28-6.32
			c1.19-1.93,3.26-3.09,5.53-3.09h10.25v-175.5c0-3.58,2.92-6.5,6.5-6.5h39c3.58,0,6.5,2.92,6.5,6.5v175.5h15.1
			c2.27,0,4.34,1.15,5.53,3.09c1.19,1.93,1.3,4.29,0.28,6.32l-38.68,77.35C260.69,390.83,258.52,392.17,256,392.17z"/>
		<path class="st0" d="M273.08,120.33c3.31,0,6,2.69,6,6l0,175v1h1l14.6,0c2.09,0,4,1.07,5.1,2.85c1.1,1.78,1.2,3.96,0.26,5.83
			l-38.68,77.35c-1.03,2.08-3.04,3.32-5.36,3.32c-2.32,0-4.33-1.24-5.37-3.32l-38.67-77.35c-0.94-1.87-0.84-4.05,0.26-5.83
			c1.1-1.78,3.01-2.85,5.1-2.85h9.75h1v-1l0-175c0-3.31,2.69-6,6-6H273.08 M273.08,119.33h-39c-3.87,0-7,3.13-7,7l0,175h-9.75
			c-5.2,0-8.59,5.48-6.26,10.13l38.67,77.35c1.29,2.58,3.78,3.87,6.26,3.87c2.49,0,4.97-1.29,6.26-3.87l38.68-77.35
			c2.33-4.65-1.06-10.13-6.26-10.13l-14.6,0l0-175C280.08,122.46,276.95,119.33,273.08,119.33L273.08,119.33z"/>
	</g>
</g>
</svg>
